<?xml version="1.0" encoding="UTF-8"?>
<svg version="1.1" xmlns="http://www.w3.org/2000/svg" width="1584" height="396">
<path d="M0 0 C1.18080643 0.00648056 1.18080643 0.00648056 2.38546753 0.01309204 C13.87268133 0.086925 24.87127399 0.61522193 36.0625 3.375 C37.62483169 3.71951417 39.18734021 4.06322712 40.75 4.40625 C63.21860958 9.58316195 83.02254394 20.15020743 96.25 39.58984375 C104.9087406 53.51411386 106.72093304 67.11776729 106.52905273 83.21191406 C106.49973051 85.8997026 106.50856654 88.58555253 106.52148438 91.2734375 C106.51525488 93.00521781 106.50687014 94.73699201 106.49609375 96.46875 C106.49902939 97.26051636 106.50196503 98.05228271 106.50498962 98.86804199 C106.40490235 104.80096447 105.34385248 109.66116364 101.4140625 114.3359375 C95.52732304 119.15720375 95.52732304 119.15720375 91.0625 119.375 C89.78375 119.4575 88.505 119.54 87.1875 119.625 C80.50812973 119.47546186 76.49923595 116.82855734 71.5625 112.625 C51.46477226 96.08466129 21.83514246 93.46911429 -3.23046875 95.72265625 C-9.12447833 96.3693037 -13.93577449 96.94980336 -18.9375 100.375 C-4.01052208 106.00201835 11.19642858 109.66025423 26.76196289 113.00170898 C48.51706393 117.73887828 68.69716758 125.10879033 86.0625 139.375 C87.05894531 140.16132813 88.05539062 140.94765625 89.08203125 141.7578125 C92.15124859 144.45293126 94.67494011 147.31760301 97.125 150.5625 C97.55474121 151.12477295 97.98448242 151.6870459 98.42724609 152.26635742 C101.95902178 157.00016901 104.73182117 161.9408383 107.0625 167.375 C107.22105469 166.72917969 107.37960937 166.08335937 107.54296875 165.41796875 C108.20524078 162.74326791 108.87717865 160.07115187 109.55322266 157.39990234 C109.91053408 155.97922116 110.2640478 154.55758199 110.61474609 153.13525391 C113.06656016 143.2112446 115.59463765 133.61974112 120.0625 124.375 C120.54074219 123.36695313 121.01898438 122.35890625 121.51171875 121.3203125 C136.10358191 92.41923728 160.99206197 71.38290724 191.375 60.625 C215.65626937 52.99521684 241.13959334 50.50452148 266.0625 56.375 C267.33351563 56.66503906 268.60453125 56.95507812 269.9140625 57.25390625 C289.20845406 62.02757041 306.02324678 70.33255519 321.0625 83.375 C322.29033203 84.40367188 322.29033203 84.40367188 323.54296875 85.453125 C346.9664743 105.64454994 360.938158 134.73731979 364.0625 165.375 C364.88088702 183.09084174 364.32157771 200.09721309 360.0625 217.375 C359.88058105 218.14086426 359.69866211 218.90672852 359.51123047 219.69580078 C352.12926136 250.03510008 333.08032929 275.1320215 306.5546875 291.34375 C277.40132686 308.58169959 238.89622145 313.6016619 206.0625 306.375 C205.27987793 306.20339355 204.49725586 306.03178711 203.69091797 305.85498047 C179.33575172 300.3414399 158.67960366 289.23053062 141.0625 271.375 C139.88494141 270.19550781 139.88494141 270.19550781 138.68359375 268.9921875 C126.05837717 255.68630707 117.61247332 239.75849454 112.0625 222.375 C111.794375 223.5609375 111.52625 224.746875 111.25 225.96875 C104.71882007 253.4677031 89.78130069 275.17429166 65.75 290.5625 C42.17317715 304.52574174 13.84774613 309.60344892 -13.25 309.625 C-14.01071808 309.62567474 -14.77143616 309.62634949 -15.5552063 309.62704468 C-27.26599707 309.61054822 -38.49658115 309.06743645 -49.9375 306.375 C-51.13632813 306.10163818 -51.13632813 306.10163818 -52.359375 305.82275391 C-77.06022026 300.0838347 -97.82816623 289.7858993 -111.90869141 268.05712891 C-120.09163415 254.67780391 -121.13455761 238.27882878 -121.17773438 223.02124023 C-121.18746299 220.94539644 -121.21857735 218.8705355 -121.25 216.79492188 C-121.318917 208.17015686 -121.11708178 200.55387891 -115.75 193.5 C-110.28770048 189.37292925 -104.82678247 187.62344191 -97.9375 188.375 C-92.90066312 189.85642261 -89.60308552 192.37025514 -85.5 195.625 C-67.40756501 209.5335594 -44.19160344 213.75666383 -21.86987305 213.69067383 C-19.61003817 213.68747885 -17.35147446 213.71120162 -15.09179688 213.73632812 C-7.85823347 213.76643196 -1.5447718 213.68300002 5.0625 210.375 C5.0625 209.385 5.0625 208.395 5.0625 207.375 C-6.55907471 201.49921502 -19.3357159 199.24386234 -31.9375 196.375 C-63.86606796 189.06473955 -96.49760816 180.93059921 -115.625 151.9375 C-128.1005543 131.49764095 -130.31135903 106.55635267 -124.9375 83.375 C-121.15066531 68.67137678 -114.71414334 55.98266418 -104.9375 44.375 C-104.22851562 43.51519531 -103.51953125 42.65539062 -102.7890625 41.76953125 C-87.7030457 24.20548642 -67.61663184 12.53861923 -45.5625 6.125 C-44.76199219 5.89087402 -43.96148437 5.65674805 -43.13671875 5.41552734 C-28.77250549 1.45856101 -14.84873197 -0.15559665 0 0 Z M221.4375 153.0625 C213.17974229 163.5844816 213.29809932 176.27959947 214.37109375 189.046875 C215.44950103 197.7886544 216.67455901 206.6644405 223.4375 212.875 C228.84134512 216.93648869 234.40537079 218.20379922 241.0625 217.375 C247.08736607 215.32654553 251.05001017 211.04116364 254.0703125 205.5390625 C257.17148524 198.64422213 257.24503435 192.10122203 257.25 184.6875 C257.26836914 183.27307617 257.26836914 183.27307617 257.28710938 181.83007812 C257.30935127 171.04275803 255.90645812 159.70702495 248.28515625 151.44921875 C243.25754166 146.9955813 239.23739251 146.01033934 232.5625 146.09765625 C227.52167251 146.65687305 224.84433243 149.57455251 221.4375 153.0625 Z " fill="#FDFD0E" transform="translate(304.9375,37.625)"/>
<path d="M0 0 C0.72509766 -0.01224609 1.45019531 -0.02449219 2.19726562 -0.03710938 C8.23665419 -0.05338805 13.53700656 0.48424415 18.3125 4.5 C23.92184372 11.20004944 24.72182091 16.5361176 24.66015625 25.11328125 C24.6587413 25.86087204 24.65732635 26.60846283 24.65586853 27.37870789 C24.65029764 29.75251365 24.6377506 32.12622303 24.625 34.5 C24.61998123 36.11523301 24.61541899 37.7304675 24.61132812 39.34570312 C24.60033775 43.29300555 24.58309332 47.24023647 24.5625 51.1875 C25.12546783 51.18305878 25.68843567 51.17861755 26.26846313 51.17404175 C32.14102636 51.12970907 38.01354184 51.09959234 43.88623047 51.07763672 C46.07635429 51.06759474 48.26646475 51.05395853 50.45654297 51.03662109 C53.60908306 51.01229373 56.76144548 51.00099869 59.9140625 50.9921875 C60.88928864 50.98186493 61.86451477 50.97154236 62.86929321 50.96090698 C70.34000305 50.95968098 75.99898969 51.77435484 81.5625 57.1875 C85.00351609 63.08638473 85.73698143 68.20760415 86.125 74.9375 C86.16818359 75.63488281 86.21136719 76.33226563 86.25585938 77.05078125 C86.36139596 78.76281922 86.4623991 80.47513561 86.5625 82.1875 C86.98917969 81.58164063 87.41585938 80.97578125 87.85546875 80.3515625 C101.88323395 61.5514648 122.4458483 53.50948118 144.5625 48.1875 C145.6153418 47.91848877 145.6153418 47.91848877 146.68945312 47.64404297 C157.68559369 44.9166751 168.85919321 44.88109074 180.125 44.8125 C180.85954407 44.8044635 181.59408813 44.796427 182.35089111 44.78814697 C210.06489363 44.5584024 237.7779375 51.50875068 259.5625 69.1875 C260.39007812 69.82816406 261.21765625 70.46882813 262.0703125 71.12890625 C281.11411736 86.85944725 290.87669869 112.20515055 293.5625 136.1875 C294.20669562 146.93791187 294.14324044 157.71066967 294.08398438 168.47631836 C294.06125139 172.65147498 294.07469273 176.82560839 294.09775734 181.00072956 C294.2467678 212.83141568 292.85843684 247.18389721 270.5625 272.1875 C269.93472656 272.89777344 269.30695313 273.60804688 268.66015625 274.33984375 C259.24325455 284.37298441 246.85542046 290.58396789 233.75 294.25 C232.38609131 294.63514771 232.38609131 294.63514771 230.99462891 295.02807617 C194.27410801 305.04305281 151.34650353 304.99723679 116.5625 288.1875 C115.66660156 287.75953125 114.77070312 287.3315625 113.84765625 286.890625 C100.34232236 279.99263524 88.55254517 270.17132341 80.5625 257.1875 C80.3665625 257.85394531 80.170625 258.52039063 79.96875 259.20703125 C75.48414207 273.02812898 66.73389539 282.79209007 54.125 289.875 C28.8975307 301.70664299 -2.08693568 300.91405687 -28.03076172 292.11694336 C-48.05448949 284.80474573 -63.6875949 270.00912875 -73.25 251.0625 C-78.28776497 239.05074722 -81.52351623 224.82344681 -81.59140015 211.81695557 C-81.60000061 210.581082 -81.60860107 209.34520844 -81.61746216 208.07188416 C-81.62189637 206.72012372 -81.62619482 205.36836282 -81.63037109 204.01660156 C-81.63828404 202.57843331 -81.6465537 201.14026698 -81.65515137 199.70210266 C-81.68124987 194.99412906 -81.69667423 190.28614715 -81.7109375 185.578125 C-81.71630358 183.94810736 -81.72168109 182.31808977 -81.72706985 180.6880722 C-81.74868732 173.89720553 -81.76741593 167.10634109 -81.77869225 160.31544876 C-81.79487909 150.63574923 -81.82794103 140.95645432 -81.88509309 131.27690721 C-81.92404096 124.4434049 -81.94335446 117.61000962 -81.94861281 110.77639937 C-81.95223462 106.70961698 -81.96391058 102.64326726 -81.99671555 98.57660675 C-82.20630669 71.25934459 -80.32851683 49.52363071 -61.4375 28.1875 C-60.89609375 27.56230469 -60.3546875 26.93710938 -59.796875 26.29296875 C-44.61453184 9.92210883 -22.20958688 0.01963712 0 0 Z M75.5625 120.1875 C75.088125 121.0125 74.61375 121.8375 74.125 122.6875 C67.35357285 133.02798261 54.71440183 138.94950685 43.02978516 141.57739258 C39.24616589 142.24316251 35.49707265 142.55050419 31.66796875 142.765625 C30.63754456 142.8287085 30.63754456 142.8287085 29.58630371 142.89306641 C27.91193062 142.9950291 26.23724317 143.09180803 24.5625 143.1875 C24.53937236 151.12363787 24.52158277 159.05976176 24.51068783 166.99592495 C24.50545992 170.68064498 24.49836395 174.36534203 24.48706055 178.05004883 C24.47622838 181.60320831 24.47022247 185.15634563 24.46762276 188.70952034 C24.4657691 190.06795666 24.46214962 191.42639171 24.45676994 192.78481865 C24.44955525 194.68132223 24.44909191 196.57784793 24.44897461 198.47436523 C24.446754 199.55580307 24.44453339 200.63724091 24.44224548 201.75144958 C24.2866803 204.13547472 24.2866803 204.13547472 25.5625 205.1875 C35.71927454 206.0717463 46.07293783 205.85501694 55.83203125 202.85546875 C60.6891962 201.66723526 65.59755344 201.94981639 70.5625 202.1875 C70.7076001 201.61418945 70.8527002 201.04087891 71.00219727 200.45019531 C75.36510406 183.50165361 80.91285395 169.83714605 93.5625 157.1875 C92.345625 156.795625 91.12875 156.40375 89.875 156 C84.33657746 153.88639705 81.45945781 151.15069443 78.96875 145.69921875 C77.12938353 140.59711797 77.00481408 135.56551177 76.875 130.1875 C76.84083984 129.22199219 76.80667969 128.25648438 76.77148438 127.26171875 C76.68977301 124.90376218 76.62037881 122.54614137 76.5625 120.1875 C76.2325 120.1875 75.9025 120.1875 75.5625 120.1875 Z M181.0625 210.0625 C179.8971875 210.22492188 178.731875 210.38734375 177.53125 210.5546875 C174.45918392 210.92804509 174.45918392 210.92804509 172.5625 213.1875 C175.56563748 214.68906874 178.35317522 214.28031204 181.6875 214.25 C182.96882813 214.24097656 184.25015625 214.23195313 185.5703125 214.22265625 C186.55773438 214.21105469 187.54515625 214.19945312 188.5625 214.1875 C188.8925 212.5375 189.2225 210.8875 189.5625 209.1875 C186.68256391 209.1875 183.91219252 209.65269909 181.0625 210.0625 Z " fill="#FDFD0E" transform="translate(1106.4375,45.8125)"/>
<path d="M0 0 C0.86625 0.5775 1.7325 1.155 2.625 1.75 C9.17640866 7.95659768 13.10508213 15.54899752 16 24 C16.78375 23.01 17.5675 22.02 18.375 21 C36.75500562 -0.28661116 66.76274194 -10.8913339 94 -14 C99.33655737 -14.31387393 104.65664439 -14.38944543 110 -14.375 C110.72444305 -14.37478851 111.44888611 -14.37457703 112.19528198 -14.37435913 C124.19044744 -14.33951299 135.42500756 -13.2436436 147 -10 C147.71913574 -9.81276367 148.43827148 -9.62552734 149.17919922 -9.43261719 C167.92063015 -4.52808001 183.5369386 5.44798363 194 22 C194.61294922 22.94746094 194.61294922 22.94746094 195.23828125 23.9140625 C196.37175329 25.90092082 197.19711277 27.85657785 198 30 C198.37125 30.97710937 198.7425 31.95421875 199.125 32.9609375 C202.1200801 42.54935367 202.40321434 52.03377024 202.4375 62 C202.44358276 62.67966827 202.44966553 63.35933655 202.45593262 64.05960083 C202.50827261 73.00906481 202.34736661 80.24889901 197.0625 87.75 C192.4952932 91.10549887 187.40814954 92.45604662 182 94 C182.969375 94.721875 183.93875 95.44375 184.9375 96.1875 C199.16464667 108.4234233 205.333742 127.0951289 207.23193359 145.21386719 C208.94292475 168.67117808 200.94959124 191.49548726 185.6875 209.1875 C165.85363972 230.34136122 137.22193573 240.71524602 108.52514648 242.17700195 C77.70121755 242.69392626 45.34958595 241.25953697 21 220 C20.05833984 219.21882813 20.05833984 219.21882813 19.09765625 218.421875 C8.03307047 208.48632859 2.53060686 193.20742176 1.65258789 178.6184082 C1.52035645 174.94244544 1.52566318 171.27361338 1.58837891 167.59619141 C1.62556019 165.34102256 1.62939181 163.087479 1.62890625 160.83203125 C1.7393367 144.43457061 1.7393367 144.43457061 8 138 C11.53232816 135.9707902 15.19849826 134.45351537 19 133 C17.5459375 131.700625 17.5459375 131.700625 16.0625 130.375 C7.23030617 121.47099972 1.89173048 111.12609631 -1 99 C-1.22300781 98.17628906 -1.44601562 97.35257812 -1.67578125 96.50390625 C-3.01421662 91.25031981 -3.17187371 86.41402186 -3 81 C-4.134375 80.87625 -5.26875 80.7525 -6.4375 80.625 C-9.43724655 80.26314246 -12.26626528 79.70026684 -15.1875 78.9375 C-22.25367648 77.30306266 -31.51420685 76.23551866 -38 80 C-39.82619032 83.62361315 -40.25151246 86.60016214 -40.25828552 90.62786865 C-40.26511353 91.74923218 -40.27194153 92.8705957 -40.27897644 94.02593994 C-40.27642349 95.24682312 -40.27387054 96.4677063 -40.27124023 97.72558594 C-40.2792636 99.71080427 -40.28728937 101.6960226 -40.29540551 103.68124056 C-40.30225257 105.81077674 -40.30426015 107.94026999 -40.30496025 110.06981659 C-40.30690557 114.5170117 -40.3249853 118.96405195 -40.34571838 123.41119385 C-40.39484873 134.45947006 -40.42575087 145.50778835 -40.44702148 156.55615234 C-40.46357342 165.13955524 -40.4864748 173.7228252 -40.53004223 182.30613923 C-40.55173773 186.72014914 -40.55988398 191.13390602 -40.55764949 195.54796553 C-40.55971861 198.95099353 -40.58109998 202.35385743 -40.59936523 205.75683594 C-40.59478806 206.96962219 -40.59021088 208.18240845 -40.585495 209.4319458 C-40.65343402 217.4079025 -41.24634204 224.38090668 -46.1875 230.875 C-54.16561307 236.90290766 -62.81489355 236.52054767 -72.375 236.4375 C-73.08698547 236.43512329 -73.79897095 236.43274658 -74.53253174 236.43029785 C-85.77402883 236.37146338 -96.25103824 235.44302681 -107 232 C-107.94875 231.72285156 -108.8975 231.44570313 -109.875 231.16015625 C-122.99781706 226.71070109 -133.20958234 216.24728026 -139.75 204.3125 C-145.28698035 192.4902987 -147.14011575 179.64368058 -147.17700195 166.71630859 C-147.18357315 165.70538651 -147.19014435 164.69446442 -147.19691467 163.65290833 C-147.21656632 160.31808379 -147.22829793 156.98330433 -147.23828125 153.6484375 C-147.24235678 152.50058399 -147.2464323 151.35273048 -147.25063133 150.17009354 C-147.27146677 144.08344964 -147.28577422 137.99682805 -147.29516602 131.91015625 C-147.30616929 125.67836627 -147.34050597 119.44693937 -147.38033772 113.21527672 C-147.40672421 108.37795433 -147.41487766 103.54071517 -147.41844749 98.70332718 C-147.42326407 96.40963948 -147.43473353 94.11595421 -147.45348549 91.8223381 C-147.69330825 60.52008209 -141.9535873 32.90772203 -119.89453125 9.6328125 C-88.75695744 -18.68935315 -34.85637056 -25.61907153 0 0 Z " fill="#FDFD0E" transform="translate(817,105)"/>
<path d="M0 0 C0.77601563 0.61230469 1.55203125 1.22460938 2.3515625 1.85546875 C21.58420874 17.79206077 33.78571907 42.47583286 37 67 C37.38923228 71.71093432 37.39450017 76.42048589 37.33618164 81.14428711 C37.31238411 83.19749876 37.31568214 85.24941733 37.32226562 87.30273438 C37.2596754 116.54200014 27.58104593 144.16948685 7 165 C6.41734375 165.65484375 5.8346875 166.3096875 5.234375 166.984375 C-12.87761008 186.92585352 -44.36494193 194.05497831 -70.0078125 195.39453125 C-98.14023432 196.21867227 -125.40445834 188.43135973 -147 170 C-147.78632813 169.35804688 -148.57265625 168.71609375 -149.3828125 168.0546875 C-168.96352958 151.42028522 -181.34009964 127.32978665 -183.78613281 101.79638672 C-186.25070366 69.57127888 -179.33887405 38.19952193 -158.453125 12.85546875 C-119.15637595 -32.88644774 -46.27170763 -38.19790527 0 0 Z M-87.625 56.6875 C-95.88275771 67.2094816 -95.76440068 79.90459947 -94.69140625 92.671875 C-93.61299897 101.4136544 -92.38794099 110.2894405 -85.625 116.5 C-80.22115488 120.56148869 -74.65712921 121.82879922 -68 121 C-61.97513393 118.95154553 -58.01248983 114.66616364 -54.9921875 109.1640625 C-51.89101476 102.26922213 -51.81746565 95.72622203 -51.8125 88.3125 C-51.79413086 86.89807617 -51.79413086 86.89807617 -51.77539062 85.45507812 C-51.75314873 74.66775803 -53.15604188 63.33202495 -60.77734375 55.07421875 C-65.80495834 50.6205813 -69.82510749 49.63533934 -76.5 49.72265625 C-81.54082749 50.28187305 -84.21816757 53.19955251 -87.625 56.6875 Z " fill="#036043" transform="translate(614,134)"/>
<path d="M0 0 C0.99386719 0.46277344 1.98773438 0.92554687 3.01171875 1.40234375 C14.07935299 6.97475095 22.34207858 14.95157135 28 26 C28.35449219 26.62777344 28.70898438 27.25554687 29.07421875 27.90234375 C33.31639649 36.5365995 32.43925389 45.75514704 32.25 55.125 C32.22990082 56.86195853 32.2116561 58.59893957 32.1953125 60.3359375 C32.15159511 64.55785487 32.0827586 68.77867484 32 73 C28.41418355 71.63320236 25.90172866 70.26634282 23 67.75 C17.49341185 63.35021777 11.4834521 60.67744 5 58 C4.08089844 57.6184375 3.16179687 57.236875 2.21484375 56.84375 C-21.39279543 47.664933 -54.32756782 44.15873262 -78.3984375 53.2890625 C-83.37798268 55.54372339 -88.4084184 57.91690271 -91.29296875 62.74609375 C-93.30556358 69.16193474 -92.99293713 76.21977604 -90.75 82.5 C-79.34550238 92.86772511 -61.7948824 95.23987494 -47.18652344 98.4128418 C-15.61928063 105.2905259 -15.61928063 105.2905259 -4 111 C-2.8553125 111.52335937 -1.710625 112.04671875 -0.53125 112.5859375 C7.14895182 116.16537016 13.70220988 120.32519271 20 126 C20.63421875 126.55300781 21.2684375 127.10601562 21.921875 127.67578125 C32.81209713 137.77092079 38.40972803 151.16689155 39.140625 165.8190918 C39.93381864 190.89392588 35.84100696 212.49350992 19 232 C0.05793645 252.16413217 -28.57390007 262.13851538 -55.82397461 263.140625 C-60.44491233 263.25795156 -65.06519994 263.29845378 -69.6875 263.3125 C-70.50958954 263.31511841 -71.33167908 263.31773682 -72.17868042 263.32043457 C-85.46934162 263.32496528 -98.09822961 262.42893097 -111 259 C-112.1653125 258.69964844 -113.330625 258.39929688 -114.53125 258.08984375 C-131.40588706 253.06659483 -145.65099605 242.75638358 -154.1875 227.25 C-159.16537481 216.28584368 -159.39109187 205.52759745 -159.1875 193.75 C-159.1724114 192.21485702 -159.15873045 190.67969954 -159.14648438 189.14453125 C-159.11384278 185.4293798 -159.06229647 181.71478667 -159 178 C-155.58901732 178.75128085 -153.88618771 179.74792719 -151.25 182.0625 C-138.44487006 192.33196064 -121.89669869 197.88568443 -106 201 C-105.17927002 201.17136475 -104.35854004 201.34272949 -103.51293945 201.51928711 C-95.43096143 203.06294285 -87.47921202 203.3401039 -79.2824707 203.31567383 C-77.06867357 203.31250883 -74.85621187 203.33608687 -72.64257812 203.36132812 C-60.83906641 203.4133814 -46.54079879 202.96784594 -37.40625 194.52734375 C-33.87950114 190.06992505 -33.523303 185.40929364 -33.4375 179.875 C-33.42267578 179.19405273 -33.40785156 178.51310547 -33.39257812 177.81152344 C-33.49591942 172.75518161 -34.69887879 169.79358355 -38 166 C-41.12590118 163.90007552 -41.12590118 163.90007552 -44.6875 162.3125 C-45.84636719 161.75175781 -47.00523437 161.19101563 -48.19921875 160.61328125 C-55.27042212 157.49227242 -62.55297986 155.51864576 -70.109375 153.984375 C-71.84129103 153.62113431 -73.5730567 153.25717611 -75.3046875 152.89257812 C-76.19510742 152.70638916 -77.08552734 152.5202002 -78.00292969 152.32836914 C-131.90643013 140.97950738 -131.90643013 140.97950738 -150 122 C-150.98033203 121.03126953 -150.98033203 121.03126953 -151.98046875 120.04296875 C-162.8249925 108.68974666 -165.58695858 92.91992455 -165.5 77.75 C-165.49355469 76.56631836 -165.48710937 75.38263672 -165.48046875 74.16308594 C-165.28055057 64.54859986 -163.95613877 56.79034737 -160 48 C-159.72124023 47.3723877 -159.44248047 46.74477539 -159.15527344 46.09814453 C-147.74600784 21.0242934 -126.25743723 6.01977777 -101.3203125 -4.0859375 C-70.79432694 -15.33235323 -29.32074867 -13.87779208 0 0 Z " fill="#046043" transform="translate(361,66)"/>
<path d="M0 0 C0.75587402 -0.00785522 1.51174805 -0.01571045 2.29052734 -0.02380371 C16.62159268 -0.13952714 30.96595285 1.05335045 44.3125 6.6875 C45.06273437 6.99381348 45.81296875 7.30012695 46.5859375 7.61572266 C64.3580615 15.05029186 78.50105705 27.95910726 86.875 45.375 C87.31714844 46.25414062 87.75929688 47.13328125 88.21484375 48.0390625 C96.45076984 65.8126416 96.52507389 85.10319155 96.39648438 104.31713867 C96.37385389 107.72989692 96.38715137 111.14139579 96.41025066 114.55410957 C96.57668465 143.61728854 95.92170167 176.80009816 75.3125 199.5625 C53.30101356 220.25923484 19.61524779 221.27828126 -8.8671875 220.703125 C-17.21544253 220.40704194 -25.01719135 219.39034304 -33.125 217.375 C-34.19878906 217.14683594 -35.27257813 216.91867187 -36.37890625 216.68359375 C-56.90348068 212.09636447 -74.56603285 200.96582993 -86.125 183.375 C-87.74538091 180.7774803 -89.02397815 178.23127406 -90.125 175.375 C-90.42277344 174.61058594 -90.72054688 173.84617187 -91.02734375 173.05859375 C-96.06043605 157.12433378 -94.77681998 138.23332786 -87.65234375 123.28515625 C-77.77586523 104.7696776 -60.47672326 95.85628188 -41.3515625 89.4453125 C-19.56292509 83.24737165 3.46148164 83.98559907 25.875 84.375 C25.75559008 81.96273151 25.62514046 79.55191399 25.48828125 77.140625 C25.45577271 76.46080566 25.42326416 75.78098633 25.38977051 75.08056641 C25.06916704 69.66812228 24.22839448 66.59069591 20.875 62.375 C17.91007883 59.78953729 15.29599334 58.71760615 11.5 57.75 C10.58476563 57.51023438 9.66953125 57.27046875 8.7265625 57.0234375 C3.15657013 55.75683649 -2.21174571 55.19878732 -7.91796875 55.13671875 C-8.6576741 55.12697021 -9.39737946 55.11722168 -10.15950012 55.10717773 C-37.53904772 54.82038142 -59.95994126 56.85659642 -81.6875 75.375 C-84.125 77.375 -84.125 77.375 -86.125 77.375 C-86.25021195 72.89510889 -86.34008136 68.4161905 -86.3996582 63.93505859 C-86.42453709 62.41632306 -86.45845385 60.89770382 -86.50219727 59.37939453 C-86.92434717 44.33099204 -83.46554646 33.38534178 -73.08203125 22.16796875 C-53.72801762 3.13814296 -25.78222158 0.13127134 0 0 Z M0.375 147.25 C-0.7903125 147.41242188 -1.955625 147.57484375 -3.15625 147.7421875 C-6.22831608 148.11554509 -6.22831608 148.11554509 -8.125 150.375 C-5.12186252 151.87656874 -2.33432478 151.46781204 1 151.4375 C2.28132813 151.42847656 3.56265625 151.41945313 4.8828125 151.41015625 C5.87023438 151.39855469 6.85765625 151.38695312 7.875 151.375 C8.205 149.725 8.535 148.075 8.875 146.375 C5.99506391 146.375 3.22469252 146.84019909 0.375 147.25 Z " fill="#046142" transform="translate(1287.125,108.625)"/>
<path d="M0 0 C1.31271905 1.1429272 2.60603928 2.30867612 3.875 3.5 C4.50664063 4.04269531 5.13828125 4.58539063 5.7890625 5.14453125 C12.65512287 11.38242014 17.5026828 20.71667288 18.10205078 30.02685547 C18.08634033 31.92781982 18.08634033 31.92781982 18.0703125 33.8671875 C18.0674826 34.54677521 18.06465271 35.22636292 18.06173706 35.92654419 C18.05062964 38.07621608 18.02554391 40.22545614 18 42.375 C17.98995795 43.84113977 17.98083425 45.30728614 17.97265625 46.7734375 C17.95072159 50.34909631 17.91625814 53.92450594 17.875 57.5 C13.87314297 55.93554906 10.12467277 54.11131983 6.3125 52.125 C-7.46705115 45.14225352 -22.66162569 41.19360782 -38.125 40.5 C-39.16285645 40.45117676 -39.16285645 40.45117676 -40.22167969 40.40136719 C-53.02228119 39.87792252 -68.69733485 39.38792373 -79.6875 47.125 C-82.76744224 50.37053053 -82.92332681 53.80516262 -82.95703125 58.1328125 C-81.69748232 61.7163179 -79.34763888 62.60722789 -76.125 64.5 C-72.87515529 65.70605864 -72.87515529 65.70605864 -69.375 66.53515625 C-68.73087158 66.69871109 -68.08674316 66.86226593 -67.4230957 67.03077698 C-58.63852412 69.20036315 -49.71631129 70.75610422 -40.81347656 72.35180664 C-20.52314026 76.01068452 -0.36508708 81.31269786 12.875 98.5 C22.56017314 114.06906746 25.56142254 130.67409136 22.1875 148.84765625 C17.79651338 166.53967318 8.0120926 181.73112244 -7.45703125 191.6328125 C-10.94738333 193.72338797 -14.51058722 195.63234495 -18.125 197.5 C-18.92292969 197.9125 -19.72085938 198.325 -20.54296875 198.75 C-29.1369136 202.6438936 -38.89138652 203.86643422 -48.125 205.5 C-49.05981201 205.67724609 -49.99462402 205.85449219 -50.95776367 206.03710938 C-75.33386861 209.59966969 -106.43238808 207.98899314 -127.4375 194.25 C-137.18257393 186.94515597 -144.29010158 177.73378458 -146.125 165.5 C-146.36348412 160.16345911 -146.31422206 154.84012502 -146.25 149.5 C-146.23995155 148.04297489 -146.23082899 146.58594309 -146.22265625 145.12890625 C-146.20078711 141.58579671 -146.16635977 138.04294188 -146.125 134.5 C-142.63189045 135.85668101 -139.59828387 137.35836764 -136.4375 139.375 C-127.84793749 144.58963839 -118.92130021 147.41957218 -109.125 149.5 C-108.00544922 149.75813477 -108.00544922 149.75813477 -106.86328125 150.02148438 C-99.27971719 151.61653041 -91.82914009 151.80725067 -84.11767578 151.76074219 C-81.99613105 151.74998037 -79.87542613 151.76071914 -77.75390625 151.7734375 C-67.74026066 151.78390452 -57.42968766 151.71767255 -49.3125 145 C-47.08145985 142.18184402 -46.98851468 139.44559526 -47 136 C-46.99742187 135.2265625 -46.99484375 134.453125 -46.9921875 133.65625 C-47.04354187 131.31552983 -47.04354187 131.31552983 -48.125 128.5 C-50.29121868 127.3974827 -50.29121868 127.3974827 -53.125 126.5 C-54.29063477 126.02361084 -55.45626953 125.54722168 -56.65722656 125.05639648 C-61.52254188 123.23076157 -66.42950143 122.40869165 -71.546875 121.59765625 C-73.56250662 121.26110738 -75.57813141 120.92451754 -77.59375 120.58789062 C-80.73067508 120.07412613 -83.86810689 119.5636175 -87.00585938 119.05493164 C-107.77277609 115.66838205 -129.11586462 111.71695736 -142.75 94.0625 C-152.30921528 79.43236916 -153.7807471 61.45370953 -150.4609375 44.4609375 C-149.57700556 41.3018416 -148.50717922 38.47291212 -147.125 35.5 C-146.37863281 33.86224609 -146.37863281 33.86224609 -145.6171875 32.19140625 C-141.81872145 24.55030593 -137.17758595 18.4804086 -131.125 12.5 C-130.46113281 11.81421875 -129.79726563 11.1284375 -129.11328125 10.421875 C-99.54987018 -18.18424466 -33.43511589 -25.16134145 0 0 Z " fill="#046043" transform="translate(983.125,122.5)"/>
<path d="M0 0 C0 16.83 0 33.66 0 51 C20.13 51 40.26 51 61 51 C61 87.55365385 61 87.55365385 53.60546875 95.5625 C45.3608459 102.94454674 36.92280909 107.5385693 25.78125 107.29296875 C24.66623108 107.28660149 24.66623108 107.28660149 23.52868652 107.28010559 C21.18540142 107.26349081 18.84301923 107.22587454 16.5 107.1875 C14.89845004 107.17243078 13.29688642 107.15874632 11.6953125 107.14648438 C7.79653417 107.11364426 3.89841944 107.06198563 0 107 C0.03810866 117.6838983 0.09754579 128.36744757 0.18390274 139.05107117 C0.22334228 144.01241339 0.25554806 148.97357906 0.27099609 153.93505859 C0.28618586 158.72689825 0.32067262 163.51825241 0.36830902 168.30987549 C0.3830989 170.13417328 0.39103964 171.9585404 0.39188385 173.78289795 C0.39426252 176.34667175 0.42141302 178.90911357 0.45410156 181.47265625 C0.4490712 182.22000534 0.44404083 182.96735443 0.43885803 183.73735046 C0.56015975 189.9221578 2.4184236 195.33350332 6.78125 199.83984375 C7.3484375 200.20207031 7.915625 200.56429687 8.5 200.9375 C9.0671875 201.31777344 9.634375 201.69804687 10.21875 202.08984375 C15.86390556 204.97432017 22.39818917 204.22252675 28.5625 204.25 C29.69236328 204.270625 30.82222656 204.29125 31.98632812 204.3125 C38.63127411 204.34310424 44.34200356 203.69744234 50.67553711 201.64746094 C53 201 53 201 57 201 C57.15017328 205.62225661 57.25805297 210.24304406 57.32958984 214.8671875 C57.35945865 216.43449688 57.40017088 218.00164365 57.45263672 219.56835938 C57.79175756 229.96806506 57.27346954 238.16711439 51 247 C40.32216585 258.20906337 24.78585907 261.66730497 9.890625 262.21484375 C-14.17710632 262.78949464 -33.80069875 258.56243806 -52.2421875 241.984375 C-56.46106789 237.68341522 -59.4508123 232.8536952 -62.25 227.5625 C-62.72614746 226.69709595 -62.72614746 226.69709595 -63.21191406 225.81420898 C-71.94281955 208.20780099 -70.59896536 187.93446759 -70.53730202 168.8439343 C-70.52704566 164.66644883 -70.53660099 160.48899535 -70.54284668 156.31150818 C-70.5500812 149.30925072 -70.54064073 142.30716319 -70.52148438 135.30493164 C-70.49966392 127.23623636 -70.50682126 119.1679447 -70.52879 111.09925896 C-70.54699325 104.13144328 -70.54948013 97.16374839 -70.53903532 90.19591659 C-70.53283499 86.0514225 -70.53186965 81.90711773 -70.54518127 77.76263618 C-70.55681365 73.87087429 -70.54858109 69.97962961 -70.52560425 66.08792305 C-70.52035884 64.66864883 -70.52175862 63.24933034 -70.53065491 61.83007431 C-70.62807711 44.69703096 -64.50332806 32.07590668 -52.83984375 19.67578125 C-45.31708304 12.58762294 -36.47159672 7.10758021 -27 3 C-26.34515625 2.68160156 -25.6903125 2.36320312 -25.015625 2.03515625 C-16.66962161 -1.47469401 -9.66831214 0 0 0 Z " fill="#036043" transform="translate(1113,64)"/>
<path d="M0 0 C5.48491805 4.3653374 10.14091235 9.95241723 11.35154724 17.06552124 C11.4580698 19.20063203 11.45153246 21.30068818 11.390625 23.4375 C11.38496521 24.20304199 11.37930542 24.96858398 11.37347412 25.75732422 C11.35130835 28.17222021 11.30115539 30.58556223 11.25 33 C11.22990915 34.64971796 11.21166294 36.29945948 11.1953125 37.94921875 C11.15150943 41.96673305 11.08262602 45.98310426 11 50 C6.95853476 49.43543567 2.98730548 48.8001382 -1 47.9375 C-13.15071121 45.7313186 -25.71538207 45.60937243 -36.3125 52.5625 C-41.98595951 57.17936381 -44.83813804 63.5856546 -45.79614067 70.7425251 C-46.25143956 75.78436362 -46.18124351 80.8533037 -46.20532227 85.91186523 C-46.21522186 87.20035873 -46.22512146 88.48885223 -46.23532104 89.81639099 C-46.2622279 93.3323738 -46.28331391 96.84836984 -46.30332303 100.36439776 C-46.32527089 104.04528858 -46.35261631 107.72613929 -46.37937927 111.40699768 C-46.42918766 118.36952173 -46.4741702 125.33206818 -46.51740164 132.29463583 C-46.56687566 140.22454075 -46.62175592 148.1544054 -46.67708123 156.08427131 C-46.79071918 172.38947704 -46.89759743 188.69471976 -47 205 C-50.91027835 205.050211 -54.82042656 205.08609395 -58.73095703 205.10986328 C-60.69961157 205.12462224 -62.6681769 205.15006161 -64.63671875 205.17578125 C-79.06630657 205.24902789 -91.54600282 203.55924789 -103.375 194.6875 C-117.85171241 179.86610396 -117.73178567 161.28025203 -117.55859375 141.83203125 C-117.55433288 139.41981768 -117.55201387 137.00759998 -117.55152893 134.59538269 C-117.54539868 129.5667328 -117.52286689 124.53853447 -117.48706055 119.51000977 C-117.44171897 113.09504306 -117.42702774 106.68048256 -117.42332363 100.26537037 C-117.41887588 95.29367649 -117.40353949 90.32206601 -117.3844471 85.35040855 C-117.37562984 82.98594528 -117.3688688 80.62147334 -117.36428642 78.25699806 C-117.29200576 52.05439041 -114.25419457 29.19600745 -95.3125 9.625 C-86.62624697 1.08146569 -75.70250302 -4.69383831 -64 -8 C-63.38987061 -8.17515137 -62.77974121 -8.35030273 -62.15112305 -8.53076172 C-42.46141762 -13.59608812 -16.97570796 -11.83757562 0 0 Z " fill="#046043" transform="translate(805,118)"/>
<path d="M0 0 C12.75942346 7.49504595 18.82311897 18.19874394 22.77172852 32.22070312 C24.40788186 38.6692007 24.5819626 44.93244774 24.546875 51.5625 C24.54123535 52.67133545 24.5355957 53.7801709 24.52978516 54.92260742 C24.31284791 69.54224446 21.2096542 83.80203961 10.85546875 94.85546875 C2.70084646 102.18480396 -6.57951582 104.97723058 -17.4296875 104.6484375 C-29.42456121 103.44052282 -36.67559679 98.12530079 -44.54296875 89.32421875 C-55.24873114 75.29503902 -55.94240466 54.14333494 -54.765625 37.3125 C-52.78846941 23.08662439 -45.58106252 11.49962284 -34.765625 2.3125 C-24.97248114 -4.35249679 -10.7014386 -5.17116496 0 0 Z M-29.390625 22 C-37.64838271 32.5219816 -37.53002568 45.21709947 -36.45703125 57.984375 C-35.37862397 66.7261544 -34.15356599 75.6019405 -27.390625 81.8125 C-21.98677988 85.87398869 -16.42275421 87.14129922 -9.765625 86.3125 C-3.74075893 84.26404553 0.22188517 79.97866364 3.2421875 74.4765625 C6.34336024 67.58172213 6.41690935 61.03872203 6.421875 53.625 C6.44024414 52.21057617 6.44024414 52.21057617 6.45898438 50.76757812 C6.48122627 39.98025803 5.07833312 28.64452495 -2.54296875 20.38671875 C-7.57058334 15.9330813 -11.59073249 14.94783934 -18.265625 15.03515625 C-23.30645249 15.59437305 -25.98379257 18.51205251 -29.390625 22 Z " fill="#FCFD0F" transform="translate(555.765625,168.6875)"/>
<path d="M0 0 C0.68100266 0.00141495 1.36200531 0.0028299 2.06364441 0.00428772 C4.22346522 0.00985327 6.38317964 0.02239922 8.54296875 0.03515625 C10.01367037 0.04017571 11.48437363 0.04473784 12.95507812 0.04882812 C16.54690915 0.05981137 20.13867855 0.07705203 23.73046875 0.09765625 C23.81843257 3.76416872 23.87118122 7.43040543 23.91796875 11.09765625 C23.94310547 12.12761719 23.96824219 13.15757812 23.99414062 14.21875 C24.06681419 21.82524955 23.42840503 27.70596493 18.54296875 33.84765625 C12.07981952 39.01817564 6.52186634 40.74104473 -1.70703125 40.53515625 C-2.8990918 40.54579102 -2.8990918 40.54579102 -4.11523438 40.55664062 C-11.14420726 40.48229022 -17.63838233 39.27121405 -23.14453125 34.72265625 C-27.96626732 28.76639404 -28.81025082 24.81708979 -28.62109375 17.19921875 C-28.02294571 11.9222238 -25.681753 9.43354169 -21.95703125 5.91015625 C-14.88664808 1.1417583 -8.35314055 -0.03437506 0 0 Z M-2.76953125 17.97265625 C-3.93484375 18.13507813 -5.10015625 18.2975 -6.30078125 18.46484375 C-9.37284733 18.83820134 -9.37284733 18.83820134 -11.26953125 21.09765625 C-8.26639377 22.59922499 -5.47885603 22.19046829 -2.14453125 22.16015625 C-0.86320312 22.15113281 0.418125 22.14210938 1.73828125 22.1328125 C2.72570313 22.12121094 3.713125 22.10960937 4.73046875 22.09765625 C5.06046875 20.44765625 5.39046875 18.79765625 5.73046875 17.09765625 C2.85053266 17.09765625 0.08016127 17.56285534 -2.76953125 17.97265625 Z " fill="#FDFD0E" transform="translate(1290.26953125,237.90234375)"/>
<path d="M0 0 C0.66 0 1.32 0 2 0 C2.33 9.57 2.66 19.14 3 29 C3.66 29.33 4.32 29.66 5 30 C3.625 31.5 3.625 31.5 2 33 C1.34 33 0.68 33 0 33 C0 22.11 0 11.22 0 0 Z " fill="#216840" transform="translate(1201,153)"/>
<path d="M0 0 C0.99 0.33 1.98 0.66 3 1 C-0.63 4.63 -4.26 8.26 -8 12 C-8.66 11.34 -9.32 10.68 -10 10 C-6.7 6.7 -3.4 3.4 0 0 Z " fill="#0F5C44" transform="translate(466,136)"/>
<path d="M0 0 C-1.5830577 4.2742558 -4.50568404 6.26531794 -8 9 C-8 6 -8 6 -6.7578125 4.39453125 C-5.94957031 3.61142578 -5.94957031 3.61142578 -5.125 2.8125 C-4.59132813 2.28269531 -4.05765625 1.75289063 -3.5078125 1.20703125 C-2 0 -2 0 0 0 Z " fill="#196143" transform="translate(1065,81)"/>
</svg>
